<svg xmlns="http://www.w3.org/2000/svg" version="1.0" width="260.000000pt" height="260.000000pt" viewBox="0 0 260.000000 260.000000" preserveAspectRatio="xMidYMid meet">
<metadata>
Created by potrace 1.12, written by Peter Selinger 2001-2015
</metadata>
<g xmlns="http://www.w3.org/2000/svg" transform="translate(-60.000000,320.000000) scale(0.100000,-0.100000)" fill="#404040" stroke="none">

<path d="M878 2700 c-47 -28 -144 -201 -174 -310 -21 -80 -24 -271 -5 -350 7 -30 35 -102 63 -159 43 -90 62 -116 132 -185 55 -56 104 -94 154 -119 39 -21 72 -42 72 -46 0 -4 -11 -18 -25 -31 -25 -23 -25 -24 -25 -216 0 -106 3 -200 6 -209 18 -45 19 -45 807 -45 768 0 796 1 817 40 6 11 10 105 10 213 0 194 0 194 -25 217 -33 31 -32 43 8 62 68 33 179 121 223 176 62 79 98 144 130 237 26 73 28 93 29 225 0 134 -2 152 -29 234 -29 89 -100 209 -148 254 -34 31 -84 27 -110 -9 -18 -24 -19 -32 -8 -101 33 -207 -92 -459 -283 -567 l-58 -33 -59 31 c-99 53 -161 61 -487 61 -171 0 -314 -4 -345 -11 -29 -6 -88 -27 -132 -47 l-78 -36 -64 33 c-72 37 -174 139 -218 216 -57 103 -70 158 -70 311 -1 104 -5 145 -15 157 -15 19 -66 22 -93 7z"/>
</g>
</svg>